<svg width="350" height="61" viewBox="0 0 350 61" fill="none" xmlns="http://www.w3.org/2000/svg">
<path d="M24.5259 36.5093C24.506 36.5093 24.486 36.5093 24.4461 36.5093C24.4062 36.3696 24.3464 36.21 24.3065 36.0704C24.1868 35.7512 24.0671 35.452 23.9674 35.1328C23.8676 34.8535 23.7878 34.5543 23.6881 34.2551C23.5086 33.7564 23.3091 33.2576 23.1295 32.7589C22.95 32.2602 22.8104 31.7415 22.6308 31.2428C22.551 31.0234 22.4712 30.804 22.3914 30.5845C22.2518 30.2055 22.1321 29.8464 21.9925 29.4674C21.8927 29.2081 21.793 28.9487 21.7132 28.6894C21.5935 28.3902 21.4738 28.091 21.3741 27.7718C21.2743 27.4925 21.1945 27.1933 21.0948 26.894C21.0349 26.7145 20.9751 26.515 20.8554 26.3754C20.5562 25.9365 19.6385 25.9166 19.3792 26.4951C19.1797 26.9339 18.9004 27.3329 18.6611 27.7518C18.4017 28.1907 18.1424 28.6096 17.903 29.0285C17.5838 29.607 17.2647 30.1656 16.9455 30.7441C16.6263 31.3027 16.2672 31.8612 15.968 32.4198C15.8084 32.719 15.6289 32.8387 15.2897 32.8387C10.921 32.8387 6.5722 32.8387 2.20346 32.8387C1.96408 32.8387 1.72469 32.8986 1.50526 32.9584C1.10629 33.0781 0.966647 33.3773 1.00654 33.876C1.02649 34.1753 1.30577 34.4745 1.6449 34.5144C1.82444 34.5344 2.00397 34.5543 2.16356 34.5543C6.75174 34.5543 11.32 34.5543 15.9081 34.5543C16.0677 34.5543 16.2273 34.5344 16.3869 34.5344C16.6263 34.5344 16.7859 34.3748 16.9255 34.1952C17.0253 34.0556 17.125 33.876 17.2048 33.7165C17.524 33.1379 17.8432 32.5594 18.1623 32.0009C18.5813 31.2827 18.9802 30.5646 19.3991 29.8464C19.5587 29.5871 19.7183 29.3278 19.9378 28.9886C20.0176 29.2081 20.0774 29.3477 20.1372 29.4874C20.2569 29.7866 20.3567 30.0659 20.4564 30.3651C20.5562 30.6643 20.6559 30.9835 20.7557 31.2827C20.8554 31.582 20.995 31.8612 21.0948 32.1605C21.2743 32.6592 21.414 33.1579 21.5735 33.6566C21.6533 33.896 21.7331 34.1154 21.8129 34.3548C21.9326 34.654 22.0523 34.9333 22.1521 35.2326C22.3316 35.7313 22.4712 36.2499 22.6508 36.7486C22.7306 36.988 22.8104 37.2075 22.9101 37.4468C23.0298 37.7461 23.1495 38.0254 23.2492 38.3246C23.4088 38.7435 23.5285 39.1824 23.708 39.6013C23.8277 39.9005 24.127 40.0601 24.4262 40.0601C24.7254 40.0601 25.0247 39.9005 25.1643 39.6212C25.3438 39.2821 25.4835 38.9031 25.6032 38.544C25.7827 38.0653 25.9223 37.5865 26.0819 37.1077C26.1617 36.8883 26.2415 36.6689 26.3413 36.4494C26.441 36.1701 26.5806 35.9108 26.6804 35.6315C26.8599 35.1328 27.0195 34.6341 27.1991 34.1553C27.2788 33.9359 27.3786 33.7165 27.4584 33.497C27.5581 33.2177 27.6778 32.9584 27.7776 32.6791C27.8773 32.3998 27.9571 32.1006 28.0568 31.8014C28.1366 31.582 28.2164 31.3825 28.2962 31.163C28.4159 30.8838 28.5356 30.6045 28.6353 30.3052C28.8149 29.8265 28.9545 29.3477 29.1341 28.869C29.2139 28.6495 29.2937 28.4301 29.3934 28.2106C29.5131 27.9114 29.6328 27.6321 29.7325 27.3329C29.8323 27.0536 29.9121 26.7743 30.0318 26.4951C30.2113 26.0163 30.4108 25.5575 30.5903 25.0787C30.7698 24.58 30.9294 24.0613 31.109 23.5626C31.3085 22.9841 31.5279 22.4056 31.7274 21.8271C31.7473 21.7872 31.7673 21.7672 31.8271 21.6875C31.9867 21.9867 32.1264 22.246 32.1463 22.5452C32.1663 22.7048 32.2061 22.8644 32.246 23.044C32.3657 23.5227 32.4854 24.0015 32.5852 24.4803C32.6849 24.9391 32.7647 25.3979 32.8645 25.8368C32.9642 26.2956 33.1038 26.7544 33.2235 27.2132C33.3233 27.692 33.4031 28.1707 33.5028 28.6695C33.5228 28.7293 33.5427 28.7892 33.5627 28.849C33.6823 29.3278 33.802 29.8265 33.9217 30.3052C34.0215 30.7641 34.1013 31.2229 34.201 31.6618C34.3007 32.1206 34.4603 32.5794 34.5601 33.0382C34.6598 33.517 34.7396 33.9758 34.8194 34.4546C34.8394 34.5144 34.8593 34.5742 34.8793 34.6341C34.999 35.0929 35.1186 35.5517 35.2184 36.0105C35.3181 36.4893 35.3979 36.9481 35.4977 37.4269C35.4977 37.4867 35.5376 37.5266 35.5376 37.5865C35.6573 38.0453 35.7769 38.5041 35.8767 38.9629C35.9764 39.4417 36.0562 39.9005 36.156 40.3793C36.2757 40.9578 36.4352 41.5363 36.5549 42.1148C36.6347 42.4539 36.9938 42.813 37.3728 42.8729C37.6322 42.9128 38.091 42.6534 38.2306 42.3941C38.2905 42.2744 38.3304 42.1348 38.3902 42.0151C38.5697 41.6161 38.7493 41.2371 38.9288 40.8581C39.0884 40.479 39.248 40.1 39.4275 39.7409C39.627 39.322 39.8265 38.8831 40.026 38.4642C40.1856 38.1051 40.3452 37.7461 40.5247 37.387C40.7242 36.9681 40.9037 36.5691 41.1032 36.1502C41.2828 35.7712 41.4623 35.3921 41.6418 35.0131C41.8214 34.6341 42.0009 34.2351 42.1804 33.8561C42.36 33.4571 42.5595 33.0382 42.739 32.6392C42.9185 32.2602 43.0981 31.8812 43.2577 31.5022C43.3574 31.3027 43.4572 31.1032 43.5768 30.8638C43.7165 31.0832 43.8162 31.2628 43.9359 31.4423C44.1953 31.8812 44.4546 32.3201 44.694 32.7589C44.9334 33.1778 45.1927 33.5768 45.4121 33.9957C45.5917 34.3548 45.831 34.5543 46.23 34.5543C46.3697 34.5543 46.4893 34.5543 46.629 34.5543C53.6509 34.5543 60.6927 34.5543 67.7146 34.5543C67.8942 34.5543 68.0737 34.5344 68.2333 34.5144C68.8517 34.3947 68.9315 33.6167 68.6722 33.2377C68.4727 32.9385 68.1535 32.8387 67.8343 32.8387C67.3157 32.8188 66.817 32.8387 66.2983 32.8387C59.8948 32.8387 53.4913 32.8387 47.0878 32.8387C46.7886 32.8387 46.609 32.6991 46.4893 32.4597C46.4095 32.3001 46.3298 32.1206 46.23 31.9809C45.8909 31.4224 45.5518 30.8638 45.2126 30.3052C44.8935 29.7467 44.5743 29.1881 44.2551 28.6096C44.1953 28.4899 44.1155 28.3503 43.9958 28.2705C43.4572 27.9314 42.9584 28.0511 42.6393 28.6096C42.5196 28.829 42.4398 29.0684 42.34 29.3078C42.1804 29.6669 42.0209 30.006 41.8613 30.3451C41.6618 30.7641 41.4822 31.163 41.2828 31.582C41.1032 31.961 40.9436 32.34 40.7641 32.6991C40.5846 33.118 40.3851 33.517 40.1856 33.9359C40.006 34.3149 39.8265 34.7139 39.627 35.0929C39.4475 35.4719 39.268 35.831 39.1084 36.21C38.9089 36.629 38.7293 37.0279 38.5498 37.4468C38.3703 37.8458 38.1907 38.2647 38.0112 38.6637C37.9314 38.8432 37.8117 39.0028 37.692 39.2422C37.5723 38.8034 37.4726 38.4243 37.3928 38.0453C37.293 37.5865 37.2132 37.1077 37.1335 36.6489C37.1335 36.609 37.1135 36.5891 37.0936 36.5492C36.9739 36.0504 36.8542 35.5717 36.7345 35.073C36.6347 34.6141 36.5549 34.1553 36.4552 33.6766C36.3954 33.3574 36.3156 33.0183 36.2358 32.6991C36.1161 32.2403 35.9964 31.7615 35.8767 31.3027C35.7769 30.8439 35.6972 30.3651 35.6174 29.9063C35.6174 29.8464 35.5775 29.8065 35.5775 29.7467C35.4578 29.2679 35.3381 28.7692 35.2383 28.2904C35.1386 27.8117 35.0588 27.3529 34.9391 26.8741C34.8394 26.4153 34.6997 25.9764 34.6 25.5176C34.5002 25.0388 34.4204 24.58 34.3406 24.1012C34.3207 24.0414 34.3008 23.9815 34.2808 23.9217C34.1611 23.423 34.0414 22.9442 33.9417 22.4455C33.8419 21.9867 33.7621 21.5279 33.6624 21.089C33.6025 20.7698 33.5228 20.4506 33.4629 20.1315C33.3233 19.553 33.2036 18.9744 33.0639 18.3959C32.9841 18.0568 32.8046 17.7775 32.5054 17.6578C31.9867 17.4583 31.488 17.7576 31.3284 18.3161C31.2486 18.5755 31.1489 18.8348 31.0491 19.0742C30.9494 19.3535 30.8297 19.6128 30.71 19.8921C30.5704 20.2312 30.4507 20.5703 30.331 20.9095C30.2312 21.1688 30.1514 21.4281 30.0517 21.6675C29.952 21.9468 29.8722 22.246 29.7525 22.5253C29.5729 23.0041 29.3734 23.4828 29.1939 23.9616C29.0144 24.4404 28.8747 24.9191 28.6952 25.3979C28.6154 25.6173 28.5356 25.8368 28.4359 26.0562C28.3361 26.3355 28.1965 26.5948 28.0967 26.8741C27.9172 27.3728 27.7576 27.8715 27.5781 28.3503C27.3985 28.8291 27.1791 29.3078 27.0195 29.7866C26.84 30.2653 26.7003 30.7441 26.5407 31.2229C26.461 31.4623 26.3612 31.7016 26.2615 31.9211C26.1418 32.2203 26.0221 32.4996 25.9223 32.7988C25.8226 33.0781 25.7428 33.3374 25.6431 33.6167C25.5633 33.8361 25.4835 34.0556 25.3837 34.275C25.284 34.5543 25.1643 34.8136 25.0646 35.0929C24.9648 35.3722 24.885 35.6714 24.7653 35.9706C24.7055 36.21 24.6057 36.3696 24.5259 36.5093ZM60.9321 31.2229C61.0518 31.2628 61.1117 31.3027 61.1915 31.3027C61.77 31.3027 62.3485 31.3027 62.9469 31.3027C63.0467 31.3027 63.1863 31.2628 63.2462 31.183C63.5055 30.8838 63.7648 30.5646 63.9843 30.2255C64.3034 29.7467 64.6226 29.2679 64.9218 28.7692C65.1413 28.4101 65.3408 28.0311 65.5403 27.6521C65.7397 27.2731 65.9193 26.894 66.0789 26.4951C66.1986 26.2357 66.2784 25.9764 66.3781 25.7171C66.4778 25.4178 66.5776 25.0987 66.6574 24.7994C66.7771 24.4204 66.9167 24.0414 66.9965 23.6424C67.1162 23.0639 67.1361 22.4654 67.2758 21.9069C67.4753 21.089 67.4553 20.2711 67.4553 19.4532C67.4553 18.8348 67.4354 18.2164 67.4154 17.598C67.3955 17.2788 67.3157 16.9596 67.2558 16.6405C67.176 16.1018 67.1162 15.5632 66.9766 15.0246C66.817 14.4262 66.6175 13.8477 66.418 13.2492C66.2185 12.6906 66.019 12.152 65.7597 11.6334C65.4206 10.9352 65.0615 10.2569 64.6625 9.5986C64.2835 8.98019 63.9045 8.38174 63.4456 7.82318C62.7873 7.04518 62.1091 6.28713 61.371 5.62883C60.6329 4.95058 59.7951 4.37207 58.9772 3.79356C58.4585 3.43448 57.88 3.13526 57.3214 2.81608C56.9823 2.63654 56.6232 2.47695 56.2841 2.31736C55.9849 2.19767 55.6856 2.07798 55.3864 1.95829C55.0872 1.85855 54.788 1.73885 54.4887 1.65906C54.1297 1.55932 53.7706 1.45957 53.3916 1.37978C52.7732 1.24014 52.1348 1.12045 51.5164 1.00076C51.3568 0.960858 51.1773 0.980808 51.0177 0.960859C50.2995 0.901013 49.6013 0.80127 48.8832 0.80127C48.165 0.80127 47.4668 0.881065 46.7487 0.960859C46.23 1.0207 45.7113 1.1005 45.1927 1.20024C44.8336 1.26009 44.4945 1.33988 44.1354 1.41968C43.7763 1.49947 43.3973 1.57927 43.0382 1.71891C42.5595 1.89844 42.0807 2.07798 41.6019 2.29741C41.0833 2.51685 40.5447 2.73628 40.0459 3.01556C39.3677 3.39459 38.7094 3.83346 38.071 4.27233C37.0936 4.93063 36.2358 5.70863 35.4179 6.54647C35.0987 6.86564 34.7795 7.18482 34.4404 7.52395C34.0215 7.10503 33.6424 6.70606 33.2634 6.32703C32.4256 5.44929 31.488 4.69125 30.4906 4.03294C30.0118 3.71377 29.5131 3.41454 29.0144 3.1552C28.4558 2.85598 27.8574 2.59664 27.2788 2.31736C27.0594 2.21762 26.82 2.11788 26.5806 2.01813C26.2814 1.89844 25.9822 1.7987 25.663 1.69896C25.3039 1.59921 24.9249 1.49947 24.5459 1.41968C24.0272 1.29998 23.5086 1.16034 22.9899 1.0606C22.7306 1.00076 22.4313 1.04065 22.172 1.00076C20.995 0.761372 19.7981 0.821218 18.6012 0.881064C18.2421 0.901013 17.8631 0.980807 17.504 1.04065C16.9255 1.12045 16.367 1.20024 15.7885 1.29998C15.5491 1.33988 15.2897 1.41968 15.0504 1.47952C14.7711 1.55932 14.4718 1.63911 14.1926 1.73885C13.8734 1.8386 13.5742 1.97824 13.2749 2.09793C12.856 2.25752 12.4371 2.41711 12.0381 2.59664C11.5594 2.83603 11.0806 3.09536 10.6218 3.37464C10.1031 3.67387 9.58444 3.99305 9.08572 4.35212C8.50722 4.79099 7.94865 5.26976 7.41004 5.74852C5.93385 7.08508 4.71698 8.64107 3.75945 10.3965C3.34053 11.1546 2.96151 11.9126 2.70217 12.7305C2.62238 12.9699 2.54259 13.1894 2.46279 13.4088C2.3431 13.7479 2.20346 14.087 2.12367 14.4461C2.00397 14.9049 1.92418 15.3637 1.84438 15.8026C1.72469 16.5407 1.58505 17.2988 1.50526 18.0369C1.34567 19.5131 1.54516 20.9693 1.70474 22.4455C1.70474 22.5253 1.74464 22.625 1.76459 22.7048C1.86433 23.1636 1.98403 23.6025 2.08377 24.0613C2.16356 24.4204 2.24336 24.7994 2.36305 25.1585C2.52264 25.6373 2.72212 26.116 2.94156 26.5948C3.24079 27.2731 3.52007 27.9713 3.89909 28.5897C4.41775 29.4475 5.03616 30.2653 5.63462 31.1032C5.71441 31.2029 5.89395 31.3027 6.03359 31.3027C6.59215 31.3226 7.17066 31.3226 7.72922 31.3027C7.80901 31.3027 7.90876 31.2628 8.02845 31.2229C7.94866 31.1231 7.90876 31.0832 7.86886 31.0234C7.09087 30.1656 6.33282 29.2879 5.75431 28.2705C5.51493 27.8715 5.27554 27.4725 5.07606 27.0536C4.85662 26.6347 4.67709 26.1958 4.49755 25.7769C4.39781 25.5375 4.29806 25.2782 4.19832 25.0189C4.07863 24.6997 3.95894 24.4005 3.87914 24.0813C3.75945 23.6424 3.67966 23.2035 3.59986 22.7647C3.46022 21.9667 3.32058 21.1488 3.24079 20.3509C3.10115 19.0143 3.30063 17.6977 3.48017 16.3612C3.52007 16.0021 3.59986 15.643 3.71955 15.284C3.89909 14.7054 4.09858 14.1269 4.29806 13.5484C4.45765 13.1096 4.59729 12.6507 4.81673 12.2318C5.11595 11.6134 5.45508 11.015 5.8341 10.4364C6.29292 9.73824 6.77169 9.07994 7.2704 8.44158C8.40747 7.02523 9.82382 5.88816 11.3599 4.95058C12.1179 4.49176 12.9358 4.17258 13.7337 3.79356C13.9532 3.69382 14.1926 3.61402 14.412 3.53423C14.7312 3.41454 15.0304 3.2749 15.3496 3.1951C15.7685 3.07541 16.2074 2.99562 16.6263 2.91582C17.3644 2.77618 18.1224 2.63654 18.8605 2.55675C20.2769 2.41711 21.6932 2.59664 23.1096 2.77618C23.1694 2.77618 23.2492 2.81608 23.3091 2.83603C23.7479 2.95572 24.1669 3.05546 24.6057 3.17515C24.9449 3.2749 25.3039 3.33474 25.6431 3.45443C26.1019 3.61402 26.5407 3.81351 26.9597 4.01299C27.598 4.31222 28.2563 4.6314 28.8747 4.99048C29.8522 5.56898 30.7499 6.26719 31.5678 7.04518C32.4455 7.88302 33.3033 8.74081 34.1611 9.5986C34.5401 9.97762 34.5202 9.97762 34.8992 9.5986C35.8767 8.64107 36.8342 7.66359 37.8516 6.74595C38.5299 6.12755 39.3078 5.60888 40.0459 5.09022C40.425 4.83089 40.8439 4.61145 41.2628 4.41197C41.6817 4.19253 42.1206 4.01299 42.5395 3.81351C42.8188 3.69382 43.0781 3.57413 43.3574 3.47438C43.6566 3.37464 43.9559 3.25495 44.2551 3.17515C44.674 3.07541 45.1129 2.97567 45.5318 2.91582C46.3697 2.77618 47.1875 2.61659 48.0254 2.55675C49.0627 2.4969 50.12 2.51685 51.1573 2.69639C51.8954 2.81608 52.6335 2.91582 53.3517 3.13526C53.6509 3.235 53.9501 3.29484 54.2294 3.39459C54.5286 3.49433 54.8478 3.57413 55.147 3.71377C55.566 3.8933 55.9649 4.07284 56.3639 4.27233C56.8227 4.49176 57.3015 4.71119 57.7403 4.99048C58.3189 5.3695 58.8575 5.78842 59.436 6.18739C60.2738 6.78585 60.992 7.52395 61.6702 8.30194C62.129 8.82061 62.528 9.35922 62.927 9.91778C63.2661 10.4165 63.5653 10.9551 63.8646 11.4937C64.0441 11.8328 64.2236 12.172 64.3633 12.531C64.5628 12.9699 64.7623 13.4287 64.9218 13.8876C65.0415 14.2067 65.0814 14.5658 65.2011 14.9049C65.4006 15.5433 65.5602 16.1617 65.6001 16.82C65.6001 16.9197 65.64 17.0195 65.64 17.1392C65.6998 17.5381 65.7597 17.9172 65.7796 18.3161C65.7996 18.8747 65.8195 19.4532 65.7796 20.0118C65.7198 20.8696 65.62 21.7074 65.5403 22.5652C65.5403 22.625 65.5004 22.6849 65.5004 22.7447C65.3807 23.1836 65.261 23.6025 65.1612 24.0414C65.0814 24.3606 65.0016 24.6997 64.882 25.0189C64.7224 25.4577 64.5229 25.9166 64.3234 26.3355C64.0242 26.9738 63.7449 27.6122 63.3659 28.1907C62.8671 28.9487 62.3086 29.6469 61.77 30.3651C61.4707 30.6444 61.2114 30.9237 60.9321 31.2229ZM58.1393 36.3297C58.0795 36.3098 57.9997 36.2699 57.9199 36.2699C57.3015 36.2699 56.6831 36.2699 56.0647 36.2699C55.9649 36.2699 55.8253 36.3297 55.7455 36.4095C55.4463 36.6689 55.1869 36.9681 54.9077 37.2474C53.8703 38.2847 52.833 39.322 51.7957 40.3593C50.519 41.636 49.2422 42.9128 47.9655 44.1695C46.8684 45.2667 45.7512 46.3838 44.6541 47.5009C43.5968 48.5582 42.5196 49.6155 41.4623 50.6927C40.3651 51.7899 39.248 52.907 38.1508 54.0042C37.0337 55.1213 35.9166 56.2384 34.7995 57.3555C34.5202 57.6348 34.4603 57.6348 34.1811 57.3555C32.9243 56.0988 31.6476 54.8221 30.3908 53.5653C28.8548 52.0293 27.2988 50.4932 25.7628 48.9572C23.9873 47.1818 22.2119 45.3864 20.4165 43.611C19.1398 42.3343 17.8831 41.0775 16.6063 39.8008C15.5092 38.7036 14.3921 37.5865 13.2949 36.4893C13.1353 36.3297 12.9757 36.2699 12.7563 36.2699C12.3573 36.2898 11.9583 36.2699 11.5594 36.2699C11.3399 36.2699 11.1404 36.2699 10.921 36.2699C10.8612 36.2699 10.8013 36.3098 10.7814 36.3497C10.7614 36.3696 10.8013 36.4494 10.8412 36.4694C11.1404 36.7686 11.4197 37.0479 11.7189 37.3471C12.8361 38.4642 13.9731 39.5813 15.0903 40.7184C16.1276 41.7557 17.1649 42.7931 18.2022 43.8304C19.2595 44.8877 20.2968 45.925 21.3541 46.9623C22.4114 48.0196 23.4487 49.0569 24.486 50.1142C25.4635 51.0917 26.441 52.0692 27.4384 53.0466C28.4159 54.0241 29.3734 54.9817 30.331 55.9591C31.2486 56.8768 32.1663 57.7745 33.0639 58.6921C33.5228 59.1509 33.9616 59.6297 34.4005 60.0885C42.34 52.149 50.2397 44.2493 58.1393 36.3297Z" fill="#08693E"/>
<path d="M24.5259 36.5098C24.6057 36.3502 24.7055 36.2106 24.7653 36.051C24.8651 35.7717 24.9449 35.4725 25.0646 35.1733C25.1643 34.894 25.284 34.6147 25.3837 34.3554C25.4635 34.1359 25.5633 33.9165 25.6431 33.6971C25.7428 33.4178 25.8226 33.1584 25.9223 32.8792C26.0221 32.5799 26.1418 32.3007 26.2615 32.0014C26.3612 31.762 26.441 31.5227 26.5408 31.3032C26.7003 30.8245 26.8599 30.3457 27.0195 29.8669C27.1991 29.3882 27.4185 28.9094 27.5781 28.4306C27.7576 27.9319 27.9172 27.4332 28.0967 26.9544C28.1965 26.6752 28.3162 26.3959 28.4359 26.1365C28.5157 25.9171 28.6154 25.6977 28.6952 25.4782C28.8548 24.9995 29.0144 24.5207 29.1939 24.0419C29.3735 23.5632 29.5729 23.0844 29.7525 22.6056C29.8522 22.3264 29.952 22.0271 30.0517 21.7479C30.1315 21.4885 30.2312 21.2292 30.331 20.9898C30.4507 20.6507 30.5903 20.3116 30.71 19.9724C30.8098 19.6931 30.9294 19.4338 31.0491 19.1545C31.1489 18.8952 31.2486 18.6558 31.3284 18.3965C31.488 17.8379 31.9867 17.5387 32.5054 17.7382C32.8246 17.8579 32.9841 18.1571 33.0639 18.4763C33.2036 19.0548 33.3233 19.6333 33.4629 20.2118C33.5427 20.531 33.6026 20.8502 33.6624 21.1693C33.7621 21.6282 33.8419 22.087 33.9417 22.5258C34.0414 23.0246 34.1811 23.5233 34.2808 24.002C34.3008 24.0619 34.3207 24.1217 34.3407 24.1816C34.4205 24.6603 34.5002 25.1391 34.6 25.5979C34.6997 26.0567 34.8394 26.4956 34.9391 26.9544C35.0389 27.4332 35.1187 27.892 35.2383 28.3708C35.3381 28.8496 35.4777 29.3483 35.5775 29.827C35.5974 29.8869 35.6174 29.9268 35.6174 29.9866C35.6972 30.4454 35.777 30.9242 35.8767 31.383C35.9764 31.8618 36.1161 32.3206 36.2358 32.7794C36.3156 33.0986 36.3754 33.4377 36.4552 33.7569C36.5549 34.2157 36.6347 34.6945 36.7345 35.1533C36.8542 35.652 36.9739 36.1507 37.0936 36.6295C37.0936 36.6694 37.1135 36.6893 37.1335 36.7292C37.2133 37.1881 37.293 37.6668 37.3928 38.1256C37.4726 38.5047 37.5923 38.8837 37.692 39.3226C37.8317 39.0832 37.9314 38.9236 38.0112 38.7441C38.1907 38.3451 38.3703 37.9262 38.5498 37.5272C38.7293 37.1083 38.9288 36.7093 39.1084 36.2904C39.2879 35.9114 39.4475 35.5523 39.627 35.1733C39.8066 34.7942 39.9861 34.3953 40.1856 34.0162C40.3851 33.6173 40.5646 33.1983 40.7641 32.7794C40.9436 32.4004 41.1032 32.0214 41.2828 31.6623C41.4823 31.2434 41.6618 30.8444 41.8613 30.4255C42.0209 30.0864 42.1805 29.7273 42.34 29.3882C42.4398 29.1488 42.5196 28.9094 42.6393 28.69C42.9585 28.1314 43.4572 28.0117 43.9958 28.3508C44.1155 28.4306 44.1753 28.5703 44.2551 28.69C44.5743 29.2485 44.8935 29.827 45.2126 30.3856C45.5518 30.9442 45.8909 31.5027 46.23 32.0613C46.3298 32.2209 46.4096 32.3805 46.4894 32.54C46.609 32.7794 46.7886 32.9191 47.0878 32.9191C53.4913 32.9191 59.8948 32.9191 66.2983 32.9191C66.817 32.9191 67.3157 32.8991 67.8344 32.9191C68.1735 32.939 68.4727 33.0188 68.6722 33.318C68.9315 33.6971 68.8318 34.4751 68.2333 34.5947C68.0538 34.6346 67.8743 34.6346 67.7147 34.6346C60.6928 34.6346 53.6509 34.6346 46.629 34.6346C46.4894 34.6346 46.3697 34.6346 46.23 34.6346C45.831 34.6346 45.5917 34.4352 45.4121 34.0761C45.1927 33.6572 44.9334 33.2382 44.694 32.8393C44.4346 32.4004 44.1753 31.9615 43.9359 31.5227C43.8362 31.3431 43.7165 31.1636 43.5769 30.9442C43.4572 31.1835 43.3574 31.383 43.2577 31.5825C43.0781 31.9615 42.8986 32.3406 42.739 32.7196C42.5595 33.1186 42.36 33.5375 42.1805 33.9364C42.0009 34.3155 41.8214 34.7144 41.6418 35.0935C41.4623 35.4725 41.2828 35.8515 41.1032 36.2305C40.9037 36.6495 40.7242 37.0484 40.5247 37.4673C40.3651 37.8264 40.2055 38.1855 40.026 38.5446C39.8265 38.9635 39.627 39.4024 39.4275 39.8213C39.248 40.2003 39.1084 40.5793 38.9288 40.9384C38.7493 41.3374 38.5698 41.7164 38.3902 42.0954C38.3304 42.2151 38.2905 42.3547 38.2306 42.4744C38.091 42.7338 37.6322 42.9931 37.3728 42.9532C36.9938 42.8934 36.6347 42.5343 36.5549 42.1952C36.4353 41.6167 36.2956 41.0381 36.156 40.4596C36.0562 39.9809 35.9764 39.522 35.8767 39.0433C35.777 38.5845 35.6573 38.1256 35.5376 37.6668C35.5176 37.607 35.4977 37.5671 35.4977 37.5072C35.3979 37.0285 35.3381 36.5497 35.2184 36.0909C35.1187 35.6321 34.999 35.1733 34.8793 34.7144C34.8593 34.6546 34.8394 34.5947 34.8194 34.5349C34.7396 34.0561 34.6598 33.5774 34.5601 33.1186C34.4603 32.6597 34.3207 32.2009 34.201 31.7421C34.1013 31.2833 34.0215 30.8245 33.9217 30.3856C33.822 29.9068 33.6824 29.4081 33.5627 28.9293C33.5427 28.8695 33.5228 28.8097 33.5028 28.7498C33.4031 28.271 33.3432 27.7723 33.2235 27.2936C33.1238 26.8347 32.9841 26.3759 32.8645 25.9171C32.7647 25.4583 32.6849 24.9995 32.5852 24.5606C32.4854 24.0818 32.3657 23.6031 32.2461 23.1243C32.2062 22.9647 32.1663 22.8051 32.1463 22.6256C32.1264 22.3264 32.0067 22.067 31.8271 21.7678C31.7673 21.8476 31.7473 21.8675 31.7274 21.9074C31.508 22.4859 31.3085 23.0645 31.109 23.643C30.9294 24.1417 30.7699 24.6603 30.5903 25.1591C30.4108 25.6378 30.2113 26.0966 30.0318 26.5754C29.932 26.8547 29.8323 27.134 29.7325 27.4133C29.6328 27.7125 29.5131 27.9918 29.3934 28.291C29.3136 28.5104 29.2139 28.7299 29.1341 28.9493C28.9745 29.4281 28.8149 29.9068 28.6354 30.3856C28.5356 30.6649 28.4159 30.9442 28.2962 31.2434C28.2164 31.4628 28.1366 31.6623 28.0568 31.8817C27.9571 32.161 27.8773 32.4602 27.7776 32.7595C27.6778 33.0388 27.5581 33.318 27.4584 33.5774C27.3786 33.7968 27.2789 34.0162 27.1991 34.2357C27.0195 34.7344 26.8599 35.2331 26.6804 35.7119C26.5806 35.9911 26.461 36.2704 26.3413 36.5298C26.2615 36.7492 26.1617 36.9686 26.0819 37.1881C25.9223 37.6668 25.7628 38.1456 25.6032 38.6244C25.4635 38.9834 25.3438 39.3625 25.1643 39.7016C25.0247 39.9809 24.7254 40.1405 24.4262 40.1405C24.127 40.1405 23.8277 39.9809 23.7081 39.6816C23.5285 39.2627 23.3889 38.8238 23.2492 38.4049C23.1495 38.1057 23.0298 37.8264 22.9101 37.5272C22.8303 37.3078 22.7306 37.0684 22.6508 36.829C22.4912 36.3303 22.3316 35.8116 22.1521 35.3129C22.0523 35.0137 21.9127 34.7344 21.8129 34.4352C21.7331 34.2157 21.6533 33.9763 21.5736 33.737C21.414 33.2382 21.2544 32.7395 21.0948 32.2408C20.995 31.9416 20.8554 31.6623 20.7557 31.3631C20.6559 31.0638 20.5562 30.7447 20.4564 30.4454C20.3567 30.1462 20.237 29.8669 20.1373 29.5677C20.0774 29.4281 20.0375 29.2884 19.9378 29.069C19.7383 29.3882 19.5587 29.6475 19.3992 29.9268C18.9802 30.6449 18.5613 31.3631 18.1623 32.0812C17.8432 32.6597 17.524 33.2183 17.2048 33.7968C17.125 33.9564 17.0253 34.116 16.9255 34.2756C16.7859 34.4551 16.6263 34.5947 16.3869 34.6147C16.2273 34.6147 16.0677 34.6346 15.9081 34.6346C11.32 34.6346 6.75174 34.6346 2.16356 34.6346C1.98403 34.6346 1.80449 34.6346 1.6449 34.5947C1.30577 34.5548 1.02649 34.2556 1.00654 33.9564C0.966647 33.4577 1.10629 33.1584 1.50526 33.0388C1.72469 32.9789 1.96408 32.9191 2.20346 32.9191C6.5722 32.9191 10.921 32.9191 15.2897 32.9191C15.6289 32.9191 15.8084 32.7994 15.968 32.5001C16.2672 31.9216 16.6064 31.383 16.9455 30.8245C17.2647 30.2659 17.5838 29.6874 17.903 29.1089C18.1424 28.67 18.4017 28.2511 18.6611 27.8322C18.9004 27.4133 19.1797 27.0143 19.3792 26.5754C19.6585 25.9969 20.5562 25.9969 20.8554 26.4557C20.9551 26.6153 21.015 26.7948 21.0948 26.9744C21.1945 27.2537 21.2743 27.5529 21.3741 27.8521C21.4738 28.1513 21.5935 28.4506 21.7132 28.7698C21.8129 29.0291 21.9127 29.2884 21.9925 29.5478C22.1321 29.9068 22.2518 30.2859 22.3914 30.6649C22.4712 30.8843 22.551 31.1037 22.6308 31.3232C22.7904 31.8219 22.95 32.3406 23.1295 32.8393C23.3091 33.338 23.5086 33.8367 23.6881 34.3354C23.7878 34.6147 23.8676 34.9139 23.9674 35.2132C24.0671 35.5323 24.2068 35.8316 24.3065 36.1507C24.3664 36.2904 24.4063 36.43 24.4461 36.5896C24.486 36.5298 24.506 36.5098 24.5259 36.5098Z" fill="#08693E" stroke="#08693E"/>
<path d="M60.932 31.2238C61.2113 30.9046 61.4507 30.6453 61.6901 30.346C62.2287 29.6279 62.8072 28.9297 63.286 28.1717C63.665 27.5931 63.9443 26.9348 64.2435 26.3164C64.443 25.8776 64.6425 25.4387 64.8021 24.9998C64.9218 24.6806 64.9816 24.3415 65.0813 24.0223C65.201 23.5835 65.3207 23.1646 65.4205 22.7257C65.4404 22.6658 65.4604 22.606 65.4604 22.5461C65.5402 21.6884 65.6399 20.8505 65.6997 19.9927C65.7396 19.4342 65.7197 18.8557 65.6997 18.2971C65.6798 17.8981 65.6 17.5191 65.5601 17.1201C65.5402 17.0204 65.5202 16.9206 65.5202 16.801C65.4803 16.1426 65.3207 15.5043 65.1212 14.8859C65.0215 14.5468 64.9616 14.2076 64.842 13.8685C64.6824 13.4097 64.4829 12.9708 64.2834 12.512C64.1238 12.1529 63.9642 11.8138 63.7847 11.4747C63.4855 10.9361 63.2062 10.3974 62.8471 9.89873C62.4681 9.34017 62.0492 8.78161 61.5903 8.2829C60.9121 7.5049 60.1939 6.76681 59.3561 6.16835C58.7975 5.76938 58.239 5.33051 57.6605 4.97143C57.2216 4.69215 56.7628 4.47272 56.284 4.25328C55.885 4.0538 55.4861 3.87426 55.0671 3.69472C54.7679 3.57503 54.4687 3.47529 54.1495 3.37554C53.8503 3.2758 53.5511 3.21596 53.2718 3.11621C52.5536 2.89678 51.8155 2.79703 51.0774 2.67734C50.0401 2.49781 48.9828 2.45791 47.9455 2.5377C47.1077 2.59755 46.2698 2.75714 45.4519 2.89678C45.0131 2.97657 44.5941 3.05637 44.1752 3.15611C43.876 3.2359 43.5768 3.33565 43.2775 3.45534C42.9982 3.55508 42.719 3.67477 42.4596 3.79446C42.0407 3.99395 41.6018 4.17349 41.1829 4.39292C40.764 4.59241 40.3451 4.81184 39.9661 5.07117C39.208 5.58984 38.45 6.1085 37.7717 6.72691C36.7543 7.64454 35.7968 8.62202 34.8193 9.57956C34.4403 9.95858 34.4602 9.93863 34.0812 9.57956C33.2234 8.72177 32.3656 7.86398 31.4879 7.02614C30.67 6.24814 29.7723 5.54994 28.7948 4.97143C28.1764 4.61236 27.5381 4.31313 26.8798 3.99395C26.4409 3.79446 26.002 3.59498 25.5632 3.43539C25.224 3.3157 24.865 3.2359 24.5258 3.15611C24.087 3.03642 23.6681 2.93668 23.2292 2.81698C23.1693 2.79704 23.0895 2.77709 23.0297 2.75714C21.6134 2.5776 20.2169 2.39806 18.7806 2.5377C18.0226 2.6175 17.2845 2.77709 16.5464 2.89678C16.1075 2.97657 15.6886 3.05637 15.2697 3.17606C14.9505 3.25585 14.6513 3.39549 14.3321 3.51518C14.1127 3.59498 13.8733 3.67477 13.6539 3.77452C12.8559 4.15354 12.0181 4.47272 11.28 4.93153C9.74393 5.86912 8.32758 7.00619 7.19051 8.42254C6.67185 9.0609 6.19308 9.73915 5.75422 10.4174C5.37519 10.9959 5.05602 11.5944 4.73684 12.2128C4.5174 12.6317 4.37776 13.0905 4.21817 13.5294C4.01869 14.1079 3.8192 14.6864 3.63966 15.2649C3.53992 15.624 3.46013 15.9831 3.40028 16.3421C3.24069 17.6587 3.04121 18.9953 3.1609 20.3319C3.24069 21.1497 3.40028 21.9477 3.51997 22.7456C3.59977 23.1845 3.67956 23.6234 3.79925 24.0622C3.87905 24.3814 4.01869 24.6806 4.11843 24.9998C4.21817 25.2592 4.31792 25.4985 4.41766 25.7579C4.5972 26.1967 4.79668 26.6157 4.99617 27.0346C5.19566 27.4535 5.43504 27.8525 5.67442 28.2514C6.27288 29.2489 7.01098 30.1466 7.78897 31.0044C7.82887 31.0642 7.86877 31.1041 7.94856 31.2038C7.82887 31.2437 7.74908 31.2836 7.64933 31.2836C7.09077 31.2836 6.51226 31.3036 5.9537 31.2836C5.81406 31.2836 5.63452 31.1839 5.55473 31.0841C4.95627 30.2663 4.35781 29.4484 3.8192 28.5706C3.44018 27.9522 3.1609 27.254 2.86167 26.5758C2.64223 26.097 2.4627 25.6382 2.28316 25.1395C2.16347 24.7804 2.10362 24.4213 2.00388 24.0423C1.90414 23.5835 1.78445 23.1446 1.6847 22.6858C1.66475 22.606 1.62486 22.5262 1.62486 22.4265C1.46527 20.9702 1.26578 19.494 1.42537 18.0178C1.50516 17.2598 1.64481 16.5217 1.7645 15.7836C1.84429 15.3248 1.92409 14.8659 2.04378 14.4271C2.12357 14.068 2.26321 13.7289 2.3829 13.3897C2.4627 13.1504 2.56244 12.9309 2.62229 12.7115C2.90157 11.8936 3.28059 11.1355 3.67956 10.3775C4.63709 8.62202 5.85396 7.06603 7.33016 5.72948C7.86877 5.25071 8.42733 4.77195 9.00584 4.33308C9.4846 3.974 10.0232 3.67477 10.5419 3.3556C11.0007 3.07632 11.4795 2.81698 11.9582 2.5776C12.3572 2.37811 12.7761 2.23847 13.195 2.07889C13.4943 1.95919 13.8134 1.81955 14.1127 1.71981C14.392 1.62007 14.6712 1.54027 14.9705 1.46048C15.2099 1.40063 15.4492 1.32084 15.7086 1.28094C16.2871 1.1812 16.8456 1.1014 17.4241 1.02161C17.7832 0.961764 18.1622 0.88197 18.5213 0.862021C19.7182 0.782227 20.8952 0.742329 22.0921 0.981713C22.3514 1.04156 22.6507 1.00166 22.91 1.04156C23.4287 1.1413 23.9473 1.28094 24.466 1.40063C24.845 1.50038 25.224 1.58017 25.5831 1.67991C25.9023 1.77966 26.2015 1.8794 26.5008 1.99909C26.7401 2.09883 26.9795 2.17863 27.199 2.29832C27.7775 2.5776 28.356 2.83693 28.9345 3.13616C29.4332 3.41544 29.9319 3.69472 30.4107 4.0139C31.4081 4.69215 32.3457 5.4502 33.1835 6.30799C33.5626 6.70696 33.9615 7.08598 34.3605 7.5049C34.6996 7.16578 35.0188 6.8466 35.338 6.52742C36.1559 5.68958 37.0336 4.91159 37.9911 4.25328C38.6295 3.81441 39.2878 3.39549 39.9661 2.99652C40.4648 2.71724 41.0034 2.49781 41.522 2.27837C42.0008 2.07889 42.4796 1.8794 42.9583 1.69986C43.3174 1.58017 43.6765 1.50038 44.0555 1.40063C44.3946 1.32084 44.7537 1.24104 45.1128 1.1812C45.6315 1.08146 46.1501 1.00166 46.6688 0.941815C47.3869 0.862021 48.0851 0.782227 48.8033 0.782227C49.5214 0.782227 50.2196 0.881969 50.9378 0.941815C51.0974 0.961764 51.2769 0.961764 51.4365 0.981713C52.0549 1.1014 52.6933 1.2211 53.3117 1.36074C53.6707 1.44053 54.0498 1.54027 54.4088 1.64002C54.7081 1.71981 55.0073 1.81955 55.3065 1.93925C55.6058 2.05894 55.905 2.17863 56.2042 2.29832C56.5633 2.45791 56.9224 2.59755 57.2415 2.79703C57.8001 3.09626 58.3786 3.39549 58.8973 3.77452C59.7152 4.35303 60.553 4.95148 61.2911 5.60979C62.0292 6.28804 62.7075 7.04609 63.3658 7.80413C63.8246 8.34274 64.2236 8.96115 64.5826 9.57956C64.9816 10.2379 65.3407 10.9161 65.6798 11.6143C65.9391 12.133 66.1386 12.6915 66.3381 13.2302C66.5376 13.8087 66.757 14.4071 66.8967 15.0056C67.0363 15.5242 67.0762 16.0828 67.1759 16.6214C67.2358 16.9406 67.3156 17.2598 67.3355 17.5789C67.3754 18.1974 67.3754 18.8158 67.3754 19.4342C67.3754 20.2521 67.3954 21.07 67.1959 21.8878C67.0563 22.4664 67.0363 23.0449 66.9166 23.6234C66.8368 24.0223 66.6972 24.4014 66.5775 24.7804C66.4777 25.0796 66.3979 25.3988 66.2982 25.698C66.2184 25.9574 66.1187 26.2366 65.999 26.476C65.8194 26.875 65.6399 27.254 65.4604 27.633C65.2609 28.0121 65.0614 28.3911 64.842 28.7502C64.5427 29.2489 64.2435 29.7276 63.9044 30.2064C63.6849 30.5455 63.4256 30.8647 63.1663 31.1639C63.1064 31.2437 62.9668 31.2836 62.867 31.2836C62.2885 31.3036 61.71 31.2836 61.1116 31.2836C61.1315 31.3036 61.0517 31.2637 60.932 31.2238Z" fill="#FF0000" stroke="#FF0000"/>
<path d="M58.1396 36.3307C50.22 44.2503 42.3403 52.1499 34.3809 60.0894C33.942 59.6306 33.5031 59.1519 33.0443 58.693C32.1466 57.7754 31.229 56.8777 30.3113 55.9601C29.3538 54.9826 28.3763 54.0251 27.4188 53.0476C26.4413 52.0701 25.4638 51.0926 24.4664 50.1151C23.4091 49.0579 22.3718 48.0205 21.3345 46.9633C20.2772 45.906 19.2399 44.8687 18.1826 43.8313C17.1453 42.794 16.1079 41.7567 15.0706 40.7194C13.9535 39.6022 12.8164 38.4652 11.6993 37.348C11.4001 37.0488 11.1208 36.7695 10.8216 36.4703C10.7817 36.4304 10.7617 36.3706 10.7617 36.3506C10.8016 36.3107 10.8615 36.2708 10.9014 36.2708C11.1208 36.2708 11.3203 36.2708 11.5397 36.2708C11.9387 36.2708 12.3377 36.2908 12.7366 36.2708C12.9561 36.2708 13.1157 36.3307 13.2752 36.4903C14.3724 37.5874 15.4696 38.7046 16.5867 39.8017C17.8634 41.0784 19.1202 42.3352 20.3969 43.6119C22.1723 45.3873 23.9477 47.1827 25.7431 48.9581C27.2792 50.4942 28.8152 52.0302 30.3712 53.5663C31.628 54.823 32.9047 56.0997 34.1614 57.3565C34.4208 57.6158 34.5005 57.6158 34.7798 57.3565C35.897 56.2394 37.0141 55.1222 38.1312 54.0051C39.2284 52.908 40.3455 51.7908 41.4427 50.6937C42.4999 49.6364 43.5772 48.5791 44.6344 47.5019C45.7316 46.4047 46.8487 45.2876 47.9459 44.1705C49.2226 42.8938 50.4993 41.617 51.776 40.3603C52.8134 39.323 53.8507 38.2856 54.888 37.2483C55.1673 36.969 55.4466 36.6897 55.7259 36.4105C55.8057 36.3307 55.9453 36.2708 56.045 36.2708C56.6634 36.2509 57.2819 36.2509 57.9003 36.2708C58 36.2708 58.0798 36.3307 58.1396 36.3307Z" fill="#FF0000" stroke="#FF0000"/>
<path d="M101.275 17.285V30.705H120.58V35.435H101.275V51H95.775V12.5H122.945V17.285H101.275ZM153.445 41.375H132.985L128.75 51H123.085L140.52 12.5H145.965L163.455 51H157.68L153.445 41.375ZM151.52 36.975L143.215 18.11L134.91 36.975H151.52ZM165.591 33.62H180.386V38.185H165.591V33.62ZM212.849 41.375H192.389L188.154 51H182.489L199.924 12.5H205.369L222.859 51H217.084L212.849 41.375ZM210.924 36.975L202.619 18.11L194.314 36.975H210.924ZM243.617 12.5C248.604 12.5 252.527 13.6917 255.387 16.075C258.247 18.4583 259.677 21.74 259.677 25.92C259.677 30.1 258.247 33.3817 255.387 35.765C252.527 38.1483 248.604 39.34 243.617 39.34H234.102V51H228.602V12.5H243.617ZM243.452 34.555C246.935 34.555 249.594 33.8217 251.427 32.355C253.26 30.8517 254.177 28.7067 254.177 25.92C254.177 23.1333 253.26 21.0067 251.427 19.54C249.594 18.0367 246.935 17.285 243.452 17.285H234.102V34.555H243.452ZM282.772 12.5C287.759 12.5 291.682 13.6917 294.542 16.075C297.402 18.4583 298.832 21.74 298.832 25.92C298.832 30.1 297.402 33.3817 294.542 35.765C291.682 38.1483 287.759 39.34 282.772 39.34H273.257V51H267.757V12.5H282.772ZM282.607 34.555C286.091 34.555 288.749 33.8217 290.582 32.355C292.416 30.8517 293.332 28.7067 293.332 25.92C293.332 23.1333 292.416 21.0067 290.582 19.54C288.749 18.0367 286.091 17.285 282.607 17.285H273.257V34.555H282.607Z" fill="#08693E"/>
</svg>
