<svg xmlns="http://www.w3.org/2000/svg" version="1.1" xmlns:xlink="http://www.w3.org/1999/xlink" xmlns:svgjs="http://svgjs.com/svgjs" width="350" height="62"><svg width="350" height="62" viewBox="0 0 350 62" fill="none" xmlns="http://www.w3.org/2000/svg">
<path d="M24.5259 36.727C24.506 36.727 24.486 36.727 24.4461 36.727C24.4062 36.5874 24.3464 36.4278 24.3065 36.2882C24.1868 35.969 24.0671 35.6698 23.9674 35.3506C23.8676 35.0713 23.7878 34.7721 23.6881 34.4728C23.5086 33.9741 23.3091 33.4754 23.1295 32.9767C22.95 32.478 22.8104 31.9593 22.6308 31.4606C22.551 31.2412 22.4712 31.0217 22.3914 30.8023C22.2518 30.4233 22.1321 30.0642 21.9925 29.6852C21.8927 29.4259 21.793 29.1665 21.7132 28.9072C21.5935 28.608 21.4738 28.3087 21.3741 27.9896C21.2743 27.7103 21.1945 27.411 21.0948 27.1118C21.0349 26.9323 20.9751 26.7328 20.8554 26.5931C20.5562 26.1543 19.6385 26.1343 19.3792 26.7128C19.1797 27.1517 18.9004 27.5507 18.6611 27.9696C18.4017 28.4085 18.1424 28.8274 17.903 29.2463C17.5838 29.8248 17.2647 30.3834 16.9455 30.9619C16.6263 31.5205 16.2672 32.079 15.968 32.6376C15.8084 32.9368 15.6289 33.0565 15.2897 33.0565C10.921 33.0565 6.5722 33.0565 2.20346 33.0565C1.96408 33.0565 1.72469 33.1163 1.50526 33.1762C1.10629 33.2959 0.966647 33.5951 1.00654 34.0938C1.02649 34.393 1.30577 34.6923 1.6449 34.7322C1.82444 34.7521 2.00397 34.7721 2.16356 34.7721C6.75174 34.7721 11.32 34.7721 15.9081 34.7721C16.0677 34.7721 16.2273 34.7521 16.3869 34.7521C16.6263 34.7521 16.7859 34.5925 16.9255 34.413C17.0253 34.2734 17.125 34.0938 17.2048 33.9342C17.524 33.3557 17.8432 32.7772 18.1623 32.2187C18.5813 31.5005 18.9802 30.7824 19.3991 30.0642C19.5587 29.8049 19.7183 29.5455 19.9378 29.2064C20.0176 29.4258 20.0774 29.5655 20.1372 29.7051C20.2569 30.0044 20.3567 30.2836 20.4564 30.5829C20.5562 30.8821 20.6559 31.2013 20.7557 31.5005C20.8554 31.7997 20.995 32.079 21.0948 32.3782C21.2743 32.877 21.414 33.3757 21.5735 33.8744C21.6533 34.1138 21.7331 34.3332 21.8129 34.5726C21.9326 34.8718 22.0523 35.1511 22.1521 35.4503C22.3316 35.949 22.4712 36.4677 22.6508 36.9664C22.7306 37.2058 22.8104 37.4252 22.9101 37.6646C23.0298 37.9639 23.1495 38.2431 23.2492 38.5424C23.4088 38.9613 23.5285 39.4001 23.708 39.8191C23.8277 40.1183 24.127 40.2779 24.4262 40.2779C24.7254 40.2779 25.0247 40.1183 25.1643 39.839C25.3438 39.4999 25.4835 39.1209 25.6032 38.7618C25.7827 38.283 25.9223 37.8043 26.0819 37.3255C26.1617 37.1061 26.2415 36.8866 26.3413 36.6672C26.441 36.3879 26.5806 36.1286 26.6804 35.8493C26.8599 35.3506 27.0195 34.8519 27.1991 34.3731C27.2788 34.1537 27.3786 33.9342 27.4584 33.7148C27.5581 33.4355 27.6778 33.1762 27.7776 32.8969C27.8773 32.6176 27.9571 32.3184 28.0568 32.0192C28.1366 31.7997 28.2164 31.6002 28.2962 31.3808C28.4159 31.1015 28.5356 30.8222 28.6353 30.523C28.8149 30.0443 28.9545 29.5655 29.1341 29.0867C29.2139 28.8673 29.2937 28.6479 29.3934 28.4284C29.5131 28.1292 29.6328 27.8499 29.7325 27.5507C29.8323 27.2714 29.9121 26.9921 30.0318 26.7128C30.2113 26.2341 30.4108 25.7753 30.5903 25.2965C30.7698 24.7978 30.9294 24.2791 31.109 23.7804C31.3085 23.2019 31.5279 22.6234 31.7274 22.0449C31.7473 22.005 31.7673 21.985 31.8271 21.9052C31.9867 22.2045 32.1264 22.4638 32.1463 22.763C32.1663 22.9226 32.2061 23.0822 32.246 23.2617C32.3657 23.7405 32.4854 24.2193 32.5852 24.698C32.6849 25.1568 32.7647 25.6157 32.8645 26.0545C32.9642 26.5134 33.1038 26.9722 33.2235 27.431C33.3233 27.9098 33.4031 28.3885 33.5028 28.8872C33.5228 28.9471 33.5427 29.0069 33.5627 29.0668C33.6823 29.5455 33.802 30.0443 33.9217 30.523C34.0215 30.9818 34.1013 31.4407 34.201 31.8795C34.3007 32.3383 34.4603 32.7972 34.5601 33.256C34.6598 33.7347 34.7396 34.1936 34.8194 34.6723C34.8394 34.7322 34.8593 34.792 34.8793 34.8519C34.999 35.3107 35.1186 35.7695 35.2184 36.2283C35.3181 36.7071 35.3979 37.1659 35.4977 37.6447C35.4977 37.7045 35.5376 37.7444 35.5376 37.8043C35.6573 38.2631 35.7769 38.7219 35.8767 39.1807C35.9764 39.6595 36.0562 40.1183 36.156 40.5971C36.2757 41.1756 36.4352 41.7541 36.5549 42.3326C36.6347 42.6717 36.9938 43.0308 37.3728 43.0906C37.6322 43.1305 38.091 42.8712 38.2306 42.6119C38.2905 42.4922 38.3304 42.3525 38.3902 42.2328C38.5697 41.8339 38.7493 41.4549 38.9288 41.0758C39.0884 40.6968 39.248 40.3178 39.4275 39.9587C39.627 39.5398 39.8265 39.1009 40.026 38.682C40.1856 38.3229 40.3452 37.9638 40.5247 37.6048C40.7242 37.1859 40.9037 36.7869 41.1032 36.368C41.2828 35.9889 41.4623 35.6099 41.6418 35.2309C41.8214 34.8519 42.0009 34.4529 42.1804 34.0739C42.36 33.6749 42.5595 33.256 42.739 32.857C42.9185 32.478 43.0981 32.099 43.2577 31.7199C43.3574 31.5204 43.4572 31.321 43.5768 31.0816C43.7165 31.301 43.8162 31.4806 43.9359 31.6601C44.1953 32.099 44.4546 32.5378 44.694 32.9767C44.9334 33.3956 45.1927 33.7946 45.4121 34.2135C45.5917 34.5726 45.831 34.7721 46.23 34.7721C46.3697 34.7721 46.4893 34.7721 46.629 34.7721C53.6509 34.7721 60.6927 34.7721 67.7146 34.7721C67.8942 34.7721 68.0737 34.7521 68.2333 34.7322C68.8517 34.6125 68.9315 33.8345 68.6722 33.4555C68.4727 33.1562 68.1535 33.0565 67.8343 33.0565C67.3157 33.0365 66.817 33.0565 66.2983 33.0565C59.8948 33.0565 53.4913 33.0565 47.0878 33.0565C46.7886 33.0565 46.609 32.9169 46.4893 32.6775C46.4095 32.5179 46.3298 32.3383 46.23 32.1987C45.8909 31.6401 45.5518 31.0816 45.2126 30.523C44.8935 29.9645 44.5743 29.4059 44.2551 28.8274C44.1953 28.7077 44.1155 28.5681 43.9958 28.4883C43.4572 28.1491 42.9584 28.2688 42.6393 28.8274C42.5196 29.0468 42.4398 29.2862 42.34 29.5256C42.1804 29.8847 42.0209 30.2238 41.8613 30.5629C41.6618 30.9818 41.4822 31.3808 41.2828 31.7997C41.1032 32.1788 40.9436 32.5578 40.7641 32.9169C40.5846 33.3358 40.3851 33.7347 40.1856 34.1537C40.006 34.5327 39.8265 34.9317 39.627 35.3107C39.4475 35.6897 39.268 36.0488 39.1084 36.4278C38.9089 36.8467 38.7293 37.2457 38.5498 37.6646C38.3703 38.0636 38.1907 38.4825 38.0112 38.8815C37.9314 39.061 37.8117 39.2206 37.692 39.46C37.5723 39.0211 37.4726 38.6421 37.3928 38.2631C37.293 37.8043 37.2132 37.3255 37.1335 36.8667C37.1335 36.8268 37.1135 36.8068 37.0936 36.7669C36.9739 36.2682 36.8542 35.7894 36.7345 35.2907C36.6347 34.8319 36.5549 34.3731 36.4552 33.8943C36.3954 33.5752 36.3156 33.236 36.2358 32.9169C36.1161 32.458 35.9964 31.9793 35.8767 31.5204C35.7769 31.0616 35.6972 30.5829 35.6174 30.124C35.6174 30.0642 35.5775 30.0243 35.5775 29.9645C35.4578 29.4857 35.3381 28.987 35.2383 28.5082C35.1386 28.0294 35.0588 27.5706 34.9391 27.0919C34.8394 26.633 34.6997 26.1942 34.6 25.7354C34.5002 25.2566 34.4204 24.7978 34.3406 24.319C34.3207 24.2592 34.3008 24.1993 34.2808 24.1395C34.1611 23.6408 34.0414 23.162 33.9417 22.6633C33.8419 22.2045 33.7621 21.7456 33.6624 21.3068C33.6025 20.9876 33.5228 20.6684 33.4629 20.3492C33.3233 19.7707 33.2036 19.1922 33.0639 18.6137C32.9841 18.2746 32.8046 17.9953 32.5054 17.8756C31.9867 17.6761 31.488 17.9754 31.3284 18.5339C31.2486 18.7932 31.1489 19.0526 31.0491 19.292C30.9494 19.5712 30.8297 19.8306 30.71 20.1099C30.5704 20.449 30.4507 20.7881 30.331 21.1272C30.2312 21.3866 30.1514 21.6459 30.0517 21.8853C29.952 22.1646 29.8722 22.4638 29.7525 22.7431C29.5729 23.2218 29.3734 23.7006 29.1939 24.1794C29.0144 24.6581 28.8747 25.1369 28.6952 25.6157C28.6154 25.8351 28.5356 26.0545 28.4359 26.274C28.3361 26.5532 28.1965 26.8126 28.0967 27.0919C27.9172 27.5906 27.7576 28.0893 27.5781 28.5681C27.3985 29.0468 27.1791 29.5256 27.0195 30.0044C26.84 30.4831 26.7003 30.9619 26.5407 31.4407C26.461 31.68 26.3612 31.9194 26.2615 32.1389C26.1418 32.4381 26.0221 32.7174 25.9223 33.0166C25.8226 33.2959 25.7428 33.5552 25.6431 33.8345C25.5633 34.0539 25.4835 34.2734 25.3837 34.4928C25.284 34.7721 25.1643 35.0314 25.0646 35.3107C24.9648 35.59 24.885 35.8892 24.7653 36.1884C24.7055 36.4278 24.6057 36.5874 24.5259 36.727ZM60.9321 31.4407C61.0518 31.4806 61.1117 31.5204 61.1915 31.5204C61.77 31.5204 62.3485 31.5204 62.9469 31.5204C63.0467 31.5204 63.1863 31.4806 63.2462 31.4008C63.5055 31.1015 63.7648 30.7824 63.9843 30.4432C64.3034 29.9645 64.6226 29.4857 64.9218 28.987C65.1413 28.6279 65.3408 28.2489 65.5403 27.8699C65.7397 27.4908 65.9193 27.1118 66.0789 26.7128C66.1986 26.4535 66.2784 26.1942 66.3781 25.9348C66.4778 25.6356 66.5776 25.3164 66.6574 25.0172C66.7771 24.6382 66.9167 24.2592 66.9965 23.8602C67.1162 23.2817 67.1361 22.6832 67.2758 22.1247C67.4753 21.3068 67.4553 20.4889 67.4553 19.671C67.4553 19.0526 67.4354 18.4342 67.4154 17.8158C67.3955 17.4966 67.3157 17.1774 67.2558 16.8582C67.176 16.3196 67.1162 15.781 66.9766 15.2424C66.817 14.6439 66.6175 14.0654 66.418 13.467C66.2185 12.9084 66.019 12.3698 65.7597 11.8511C65.4206 11.1529 65.0615 10.4747 64.6625 9.81637C64.2835 9.19797 63.9045 8.59951 63.4456 8.04095C62.7873 7.26296 62.1091 6.50491 61.371 5.8466C60.6329 5.16835 59.7951 4.58984 58.9772 4.01133C58.4585 3.65226 57.88 3.35303 57.3214 3.03385C56.9823 2.85431 56.6232 2.69473 56.2841 2.53514C55.9849 2.41545 55.6856 2.29575 55.3864 2.17606C55.0872 2.07632 54.788 1.95663 54.4887 1.87683C54.1297 1.77709 53.7706 1.67735 53.3916 1.59755C52.7732 1.45791 52.1348 1.33822 51.5164 1.21853C51.3568 1.17863 51.1773 1.19858 51.0177 1.17863C50.2995 1.11879 49.6013 1.01904 48.8832 1.01904C48.165 1.01904 47.4668 1.09884 46.7487 1.17863C46.23 1.23848 45.7113 1.31827 45.1927 1.41801C44.8336 1.47786 44.4945 1.55766 44.1354 1.63745C43.7763 1.71724 43.3973 1.79704 43.0382 1.93668C42.5595 2.11622 42.0807 2.29575 41.6019 2.51519C41.0833 2.73462 40.5447 2.95406 40.0459 3.23334C39.3677 3.61236 38.7094 4.05123 38.071 4.4901C37.0936 5.1484 36.2358 5.9264 35.4179 6.76424C35.0987 7.08342 34.7795 7.4026 34.4404 7.74172C34.0215 7.3228 33.6424 6.92383 33.2634 6.54481C32.4256 5.66707 31.488 4.90902 30.4906 4.25072C30.0118 3.93154 29.5131 3.63231 29.0144 3.37298C28.4558 3.07375 27.8574 2.81442 27.2788 2.53514C27.0594 2.43539 26.82 2.33565 26.5806 2.23591C26.2814 2.11622 25.9822 2.01647 25.663 1.91673C25.3039 1.81699 24.9249 1.71724 24.5459 1.63745C24.0272 1.51776 23.5086 1.37812 22.9899 1.27838C22.7306 1.21853 22.4313 1.25843 22.172 1.21853C20.995 0.979146 19.7981 1.03899 18.6012 1.09884C18.2421 1.11879 17.8631 1.19858 17.504 1.25843C16.9255 1.33822 16.367 1.41801 15.7885 1.51776C15.5491 1.55766 15.2897 1.63745 15.0504 1.6973C14.7711 1.77709 14.4718 1.85688 14.1926 1.95663C13.8734 2.05637 13.5742 2.19601 13.2749 2.3157C12.856 2.47529 12.4371 2.63488 12.0381 2.81442C11.5594 3.0538 11.0806 3.31313 10.6218 3.59241C10.1031 3.89164 9.58444 4.21082 9.08572 4.56989C8.50722 5.00876 7.94865 5.48753 7.41004 5.9663C5.93385 7.30285 4.71698 8.85884 3.75945 10.6143C3.34053 11.3724 2.96151 12.1304 2.70217 12.9483C2.62238 13.1877 2.54259 13.4071 2.46279 13.6266C2.3431 13.9657 2.20346 14.3048 2.12367 14.6639C2.00397 15.1227 1.92418 15.5815 1.84438 16.0204C1.72469 16.7585 1.58505 17.5165 1.50526 18.2546C1.34567 19.7308 1.54516 21.1871 1.70474 22.6633C1.70474 22.7431 1.74464 22.8428 1.76459 22.9226C1.86433 23.3814 1.98403 23.8203 2.08377 24.2791C2.16356 24.6382 2.24336 25.0172 2.36305 25.3763C2.52264 25.855 2.72212 26.3338 2.94156 26.8126C3.24079 27.4908 3.52007 28.189 3.89909 28.8074C4.41775 29.6652 5.03616 30.4831 5.63462 31.321C5.71441 31.4207 5.89395 31.5204 6.03359 31.5204C6.59215 31.5404 7.17066 31.5404 7.72922 31.5204C7.80901 31.5204 7.90876 31.4806 8.02845 31.4407C7.94866 31.3409 7.90876 31.301 7.86886 31.2412C7.09087 30.3834 6.33282 29.5056 5.75431 28.4883C5.51493 28.0893 5.27554 27.6903 5.07606 27.2714C4.85662 26.8525 4.67709 26.4136 4.49755 25.9947C4.39781 25.7553 4.29806 25.496 4.19832 25.2366C4.07863 24.9175 3.95894 24.6182 3.87914 24.2991C3.75945 23.8602 3.67966 23.4213 3.59986 22.9824C3.46022 22.1845 3.32058 21.3666 3.24079 20.5687C3.10115 19.2321 3.30063 17.9155 3.48017 16.5789C3.52007 16.2199 3.59986 15.8608 3.71955 15.5017C3.89909 14.9232 4.09858 14.3447 4.29806 13.7662C4.45765 13.3273 4.59729 12.8685 4.81673 12.4496C5.11595 11.8312 5.45508 11.2327 5.8341 10.6542C6.29292 9.95602 6.77169 9.29771 7.2704 8.65936C8.40747 7.24301 9.82382 6.10594 11.3599 5.16835C12.1179 4.70953 12.9358 4.39036 13.7337 4.01133C13.9532 3.91159 14.1926 3.8318 14.412 3.752C14.7312 3.63231 15.0304 3.49267 15.3496 3.41287C15.7685 3.29318 16.2074 3.21339 16.6263 3.13359C17.3644 2.99395 18.1224 2.85431 18.8605 2.77452C20.2769 2.63488 21.6932 2.81442 23.1096 2.99395C23.1694 2.99395 23.2492 3.03385 23.3091 3.0538C23.7479 3.17349 24.1669 3.27323 24.6057 3.39293C24.9449 3.49267 25.3039 3.55252 25.6431 3.67221C26.1019 3.8318 26.5407 4.03128 26.9597 4.23077C27.598 4.53 28.2563 4.84917 28.8747 5.20825C29.8522 5.78676 30.7499 6.48496 31.5678 7.26295C32.4455 8.1008 33.3033 8.95858 34.1611 9.81637C34.5401 10.1954 34.5202 10.1954 34.8992 9.81637C35.8767 8.85884 36.8342 7.88136 37.8516 6.96373C38.5299 6.34532 39.3078 5.82666 40.0459 5.30799C40.425 5.04866 40.8439 4.82923 41.2628 4.62974C41.6817 4.41031 42.1206 4.23077 42.5395 4.03128C42.8188 3.91159 43.0781 3.7919 43.3574 3.69216C43.6566 3.59241 43.9559 3.47272 44.2551 3.39293C44.674 3.29318 45.1129 3.19344 45.5318 3.13359C46.3697 2.99395 47.1875 2.83437 48.0254 2.77452C49.0627 2.71467 50.12 2.73462 51.1573 2.91416C51.8954 3.03385 52.6335 3.13359 53.3517 3.35303C53.6509 3.45277 53.9501 3.51262 54.2294 3.61236C54.5286 3.7121 54.8478 3.7919 55.147 3.93154C55.566 4.11108 55.9649 4.29061 56.3639 4.4901C56.8227 4.70953 57.3015 4.92897 57.7403 5.20825C58.3189 5.58727 58.8575 6.00619 59.436 6.40516C60.2738 7.00362 60.992 7.74172 61.6702 8.51972C62.129 9.03838 62.528 9.57699 62.927 10.1356C63.2661 10.6343 63.5653 11.1729 63.8646 11.7115C64.0441 12.0506 64.2236 12.3897 64.3633 12.7488C64.5628 13.1877 64.7623 13.6465 64.9218 14.1053C65.0415 14.4245 65.0814 14.7836 65.2011 15.1227C65.4006 15.7611 65.5602 16.3795 65.6001 17.0378C65.6001 17.1375 65.64 17.2373 65.64 17.3569C65.6998 17.7559 65.7597 18.1349 65.7796 18.5339C65.7996 19.0925 65.8195 19.671 65.7796 20.2295C65.7198 21.0873 65.62 21.9252 65.5403 22.783C65.5403 22.8428 65.5004 22.9027 65.5004 22.9625C65.3807 23.4014 65.261 23.8203 65.1612 24.2592C65.0814 24.5783 65.0016 24.9175 64.882 25.2366C64.7224 25.6755 64.5229 26.1343 64.3234 26.5532C64.0242 27.1916 63.7449 27.83 63.3659 28.4085C62.8671 29.1665 62.3086 29.8647 61.77 30.5829C61.4707 30.8621 61.2114 31.1414 60.9321 31.4407ZM58.1393 36.5475C58.0795 36.5275 57.9997 36.4876 57.9199 36.4876C57.3015 36.4876 56.6831 36.4876 56.0647 36.4876C55.9649 36.4876 55.8253 36.5475 55.7455 36.6273C55.4463 36.8866 55.1869 37.1859 54.9077 37.4651C53.8703 38.5025 52.833 39.5398 51.7957 40.5771C50.519 41.8538 49.2422 43.1305 47.9655 44.3873C46.8684 45.4845 45.7512 46.6016 44.6541 47.7187C43.5968 48.776 42.5196 49.8333 41.4623 50.9105C40.3651 52.0077 39.248 53.1248 38.1508 54.222C37.0337 55.3391 35.9166 56.4562 34.7995 57.5733C34.5202 57.8526 34.4603 57.8526 34.1811 57.5733C32.9243 56.3166 31.6476 55.0398 30.3908 53.7831C28.8548 52.247 27.2988 50.711 25.7628 49.175C23.9873 47.3995 22.2119 45.6042 20.4165 43.8287C19.1398 42.552 17.8831 41.2953 16.6063 40.0186C15.5092 38.9214 14.3921 37.8043 13.2949 36.7071C13.1353 36.5475 12.9757 36.4876 12.7563 36.4876C12.3573 36.5076 11.9583 36.4876 11.5594 36.4876C11.3399 36.4876 11.1404 36.4876 10.921 36.4876C10.8612 36.4876 10.8013 36.5276 10.7814 36.5674C10.7614 36.5874 10.8013 36.6672 10.8412 36.6871C11.1404 36.9864 11.4197 37.2656 11.7189 37.5649C12.8361 38.682 13.9731 39.7991 15.0903 40.9362C16.1276 41.9735 17.1649 43.0108 18.2022 44.0482C19.2595 45.1054 20.2968 46.1428 21.3541 47.1801C22.4114 48.2374 23.4487 49.2747 24.486 50.332C25.4635 51.3095 26.441 52.2869 27.4384 53.2644C28.4159 54.2419 29.3734 55.1994 30.331 56.1769C31.2486 57.0946 32.1663 57.9922 33.0639 58.9099C33.5228 59.3687 33.9616 59.8475 34.4005 60.3063C42.34 52.3667 50.2397 44.4671 58.1393 36.5475Z" fill="#08693E"></path>
<path d="M24.5259 36.7276C24.6057 36.568 24.7055 36.4284 24.7653 36.2688C24.8651 35.9895 24.9449 35.6903 25.0646 35.391C25.1643 35.1117 25.284 34.8325 25.3837 34.5731C25.4635 34.3537 25.5633 34.1343 25.6431 33.9148C25.7428 33.6356 25.8226 33.3762 25.9223 33.0969C26.0221 32.7977 26.1418 32.5184 26.2615 32.2192C26.3612 31.9798 26.441 31.7404 26.5408 31.521C26.7003 31.0422 26.8599 30.5635 27.0195 30.0847C27.1991 29.6059 27.4185 29.1272 27.5781 28.6484C27.7576 28.1497 27.9172 27.651 28.0967 27.1722C28.1965 26.8929 28.3162 26.6136 28.4359 26.3543C28.5157 26.1349 28.6154 25.9154 28.6952 25.696C28.8548 25.2172 29.0144 24.7385 29.1939 24.2597C29.3735 23.7809 29.5729 23.3022 29.7525 22.8234C29.8522 22.5441 29.952 22.2449 30.0517 21.9656C30.1315 21.7063 30.2312 21.447 30.331 21.2076C30.4507 20.8685 30.5903 20.5293 30.71 20.1902C30.8098 19.9109 30.9294 19.6516 31.0491 19.3723C31.1489 19.113 31.2486 18.8736 31.3284 18.6143C31.488 18.0557 31.9867 17.7565 32.5054 17.956C32.8246 18.0756 32.9841 18.3749 33.0639 18.6941C33.2036 19.2726 33.3233 19.8511 33.4629 20.4296C33.5427 20.7488 33.6026 21.0679 33.6624 21.3871C33.7621 21.8459 33.8419 22.3048 33.9417 22.7436C34.0414 23.2423 34.1811 23.741 34.2808 24.2198C34.3008 24.2797 34.3207 24.3395 34.3407 24.3994C34.4205 24.8781 34.5002 25.3569 34.6 25.8157C34.6997 26.2745 34.8394 26.7134 34.9391 27.1722C35.0389 27.651 35.1187 28.1098 35.2383 28.5886C35.3381 29.0673 35.4777 29.566 35.5775 30.0448C35.5974 30.1047 35.6174 30.1445 35.6174 30.2044C35.6972 30.6632 35.777 31.142 35.8767 31.6008C35.9764 32.0796 36.1161 32.5384 36.2358 32.9972C36.3156 33.3164 36.3754 33.6555 36.4552 33.9747C36.5549 34.4335 36.6347 34.9123 36.7345 35.3711C36.8542 35.8698 36.9739 36.3685 37.0936 36.8473C37.0936 36.8872 37.1135 36.9071 37.1335 36.947C37.2133 37.4058 37.293 37.8846 37.3928 38.3434C37.4726 38.7224 37.5923 39.1015 37.692 39.5403C37.8317 39.301 37.9314 39.1414 38.0112 38.9618C38.1907 38.5629 38.3703 38.1439 38.5498 37.745C38.7293 37.326 38.9288 36.9271 39.1084 36.5082C39.2879 36.1291 39.4475 35.7701 39.627 35.391C39.8066 35.012 39.9861 34.613 40.1856 34.234C40.3851 33.835 40.5646 33.4161 40.7641 32.9972C40.9436 32.6182 41.1032 32.2392 41.2828 31.8801C41.4823 31.4612 41.6618 31.0622 41.8613 30.6433C42.0209 30.3041 42.1805 29.9451 42.34 29.6059C42.4398 29.3666 42.5196 29.1272 42.6393 28.9077C42.9585 28.3492 43.4572 28.2295 43.9958 28.5686C44.1155 28.6484 44.1753 28.788 44.2551 28.9077C44.5743 29.4663 44.8935 30.0448 45.2126 30.6034C45.5518 31.1619 45.8909 31.7205 46.23 32.279C46.3298 32.4386 46.4096 32.5982 46.4894 32.7578C46.609 32.9972 46.7886 33.1368 47.0878 33.1368C53.4913 33.1368 59.8948 33.1368 66.2983 33.1368C66.817 33.1368 67.3157 33.1169 67.8344 33.1368C68.1735 33.1568 68.4727 33.2366 68.6722 33.5358C68.9315 33.9148 68.8318 34.6928 68.2333 34.8125C68.0538 34.8524 67.8743 34.8524 67.7147 34.8524C60.6928 34.8524 53.6509 34.8524 46.629 34.8524C46.4894 34.8524 46.3697 34.8524 46.23 34.8524C45.831 34.8524 45.5917 34.6529 45.4121 34.2939C45.1927 33.8749 44.9334 33.456 44.694 33.057C44.4346 32.6182 44.1753 32.1793 43.9359 31.7404C43.8362 31.5609 43.7165 31.3814 43.5769 31.1619C43.4572 31.4013 43.3574 31.6008 43.2577 31.8003C43.0781 32.1793 42.8986 32.5583 42.739 32.9374C42.5595 33.3363 42.36 33.7552 42.1805 34.1542C42.0009 34.5332 41.8214 34.9322 41.6418 35.3112C41.4623 35.6903 41.2828 36.0693 41.1032 36.4483C40.9037 36.8672 40.7242 37.2662 40.5247 37.6851C40.3651 38.0442 40.2055 38.4033 40.026 38.7623C39.8265 39.1813 39.627 39.6201 39.4275 40.0391C39.248 40.4181 39.1084 40.7971 38.9288 41.1562C38.7493 41.5551 38.5698 41.9342 38.3902 42.3132C38.3304 42.4329 38.2905 42.5725 38.2306 42.6922C38.091 42.9515 37.6322 43.2109 37.3728 43.171C36.9938 43.1111 36.6347 42.7521 36.5549 42.4129C36.4353 41.8344 36.2956 41.2559 36.156 40.6774C36.0562 40.1986 35.9764 39.7398 35.8767 39.2611C35.777 38.8022 35.6573 38.3434 35.5376 37.8846C35.5176 37.8248 35.4977 37.7849 35.4977 37.725C35.3979 37.2462 35.3381 36.7675 35.2184 36.3087C35.1187 35.8498 34.999 35.391 34.8793 34.9322C34.8593 34.8724 34.8394 34.8125 34.8194 34.7527C34.7396 34.2739 34.6598 33.7951 34.5601 33.3363C34.4603 32.8775 34.3207 32.4187 34.201 31.9599C34.1013 31.5011 34.0215 31.0422 33.9217 30.6034C33.822 30.1246 33.6824 29.6259 33.5627 29.1471C33.5427 29.0873 33.5228 29.0274 33.5028 28.9676C33.4031 28.4888 33.3432 27.9901 33.2235 27.5113C33.1238 27.0525 32.9841 26.5937 32.8645 26.1349C32.7647 25.6761 32.6849 25.2172 32.5852 24.7784C32.4854 24.2996 32.3657 23.8208 32.2461 23.3421C32.2062 23.1825 32.1663 23.0229 32.1463 22.8434C32.1264 22.5441 32.0067 22.2848 31.8271 21.9856C31.7673 22.0654 31.7473 22.0853 31.7274 22.1252C31.508 22.7037 31.3085 23.2822 31.109 23.8607C30.9294 24.3595 30.7699 24.8781 30.5903 25.3768C30.4108 25.8556 30.2113 26.3144 30.0318 26.7932C29.932 27.0725 29.8323 27.3517 29.7325 27.631C29.6328 27.9303 29.5131 28.2095 29.3934 28.5088C29.3136 28.7282 29.2139 28.9476 29.1341 29.1671C28.9745 29.6458 28.8149 30.1246 28.6354 30.6034C28.5356 30.8826 28.4159 31.1619 28.2962 31.4612C28.2164 31.6806 28.1366 31.8801 28.0568 32.0995C27.9571 32.3788 27.8773 32.678 27.7776 32.9772C27.6778 33.2565 27.5581 33.5358 27.4584 33.7951C27.3786 34.0146 27.2789 34.234 27.1991 34.4534C27.0195 34.9522 26.8599 35.4509 26.6804 35.9296C26.5806 36.2089 26.461 36.4882 26.3413 36.7475C26.2615 36.967 26.1617 37.1864 26.0819 37.4058C25.9223 37.8846 25.7628 38.3634 25.6032 38.8421C25.4635 39.2012 25.3438 39.5802 25.1643 39.9194C25.0247 40.1986 24.7254 40.3582 24.4262 40.3582C24.127 40.3582 23.8277 40.1986 23.7081 39.8994C23.5285 39.4805 23.3889 39.0416 23.2492 38.6227C23.1495 38.3235 23.0298 38.0442 22.9101 37.745C22.8303 37.5255 22.7306 37.2861 22.6508 37.0468C22.4912 36.548 22.3316 36.0294 22.1521 35.5307C22.0523 35.2314 21.9127 34.9522 21.8129 34.6529C21.7331 34.4335 21.6533 34.1941 21.5736 33.9547C21.414 33.456 21.2544 32.9573 21.0948 32.4586C20.995 32.1594 20.8554 31.8801 20.7557 31.5808C20.6559 31.2816 20.5562 30.9624 20.4564 30.6632C20.3567 30.364 20.237 30.0847 20.1373 29.7855C20.0774 29.6458 20.0375 29.5062 19.9378 29.2868C19.7383 29.6059 19.5587 29.8653 19.3992 30.1446C18.9802 30.8627 18.5613 31.5808 18.1623 32.299C17.8432 32.8775 17.524 33.4361 17.2048 34.0146C17.125 34.1742 17.0253 34.3338 16.9255 34.4933C16.7859 34.6729 16.6263 34.8125 16.3869 34.8325C16.2273 34.8325 16.0677 34.8524 15.9081 34.8524C11.32 34.8524 6.75174 34.8524 2.16356 34.8524C1.98403 34.8524 1.80449 34.8524 1.6449 34.8125C1.30577 34.7726 1.02649 34.4734 1.00654 34.1742C0.966647 33.6755 1.10629 33.3762 1.50526 33.2565C1.72469 33.1967 1.96408 33.1368 2.20346 33.1368C6.5722 33.1368 10.921 33.1368 15.2897 33.1368C15.6289 33.1368 15.8084 33.0171 15.968 32.7179C16.2672 32.1394 16.6064 31.6008 16.9455 31.0422C17.2647 30.4837 17.5838 29.9052 17.903 29.3267C18.1424 28.8878 18.4017 28.4689 18.6611 28.0499C18.9004 27.631 19.1797 27.2321 19.3792 26.7932C19.6585 26.2147 20.5562 26.2147 20.8554 26.6735C20.9551 26.8331 21.015 27.0126 21.0948 27.1922C21.1945 27.4714 21.2743 27.7707 21.3741 28.0699C21.4738 28.3691 21.5935 28.6684 21.7132 28.9875C21.8129 29.2469 21.9127 29.5062 21.9925 29.7655C22.1321 30.1246 22.2518 30.5036 22.3914 30.8826C22.4712 31.1021 22.551 31.3215 22.6308 31.541C22.7904 32.0397 22.95 32.5583 23.1295 33.057C23.3091 33.5558 23.5086 34.0545 23.6881 34.5532C23.7878 34.8325 23.8676 35.1317 23.9674 35.4309C24.0671 35.7501 24.2068 36.0493 24.3065 36.3685C24.3664 36.5082 24.4063 36.6478 24.4461 36.8074C24.486 36.7475 24.506 36.7276 24.5259 36.7276Z" fill="white" stroke="white"></path>
<path d="M60.932 31.4416C61.2113 31.1224 61.4507 30.863 61.6901 30.5638C62.2287 29.8457 62.8072 29.1475 63.286 28.3894C63.665 27.8109 63.9443 27.1526 64.2435 26.5342C64.443 26.0953 64.6425 25.6565 64.8021 25.2176C64.9218 24.8984 64.9816 24.5593 65.0813 24.2401C65.201 23.8012 65.3207 23.3823 65.4205 22.9435C65.4404 22.8836 65.4604 22.8238 65.4604 22.7639C65.5402 21.9061 65.6399 21.0683 65.6997 20.2105C65.7396 19.6519 65.7197 19.0734 65.6997 18.5149C65.6798 18.1159 65.6 17.7369 65.5601 17.3379C65.5402 17.2382 65.5202 17.1384 65.5202 17.0187C65.4803 16.3604 65.3207 15.7221 65.1212 15.1037C65.0215 14.7645 64.9616 14.4254 64.842 14.0863C64.6824 13.6275 64.4829 13.1886 64.2834 12.7298C64.1238 12.3707 63.9642 12.0316 63.7847 11.6924C63.4855 11.1538 63.2062 10.6152 62.8471 10.1165C62.4681 9.55795 62.0492 8.99939 61.5903 8.50067C60.9121 7.72268 60.1939 6.98458 59.3561 6.38612C58.7975 5.98715 58.239 5.54828 57.6605 5.18921C57.2216 4.90993 56.7628 4.69049 56.284 4.47106C55.885 4.27157 55.4861 4.09203 55.0671 3.91249C54.7679 3.7928 54.4687 3.69306 54.1495 3.59332C53.8503 3.49357 53.5511 3.43373 53.2718 3.33399C52.5536 3.11455 51.8155 3.01481 51.0774 2.89512C50.0401 2.71558 48.9828 2.67568 47.9455 2.75548C47.1077 2.81532 46.2698 2.97491 45.4519 3.11455C45.0131 3.19435 44.5941 3.27414 44.1752 3.37388C43.876 3.45368 43.5768 3.55342 43.2775 3.67311C42.9982 3.77286 42.719 3.89255 42.4596 4.01224C42.0407 4.21172 41.6018 4.39126 41.1829 4.6107C40.764 4.81018 40.3451 5.02962 39.9661 5.28895C39.208 5.80761 38.45 6.32628 37.7717 6.94468C36.7543 7.86232 35.7968 8.8398 34.8193 9.79733C34.4403 10.1764 34.4602 10.1564 34.0812 9.79733C33.2234 8.93954 32.3656 8.08175 31.4879 7.24391C30.67 6.46592 29.7723 5.76771 28.7948 5.18921C28.1764 4.83013 27.5381 4.5309 26.8798 4.21172C26.4409 4.01224 26.002 3.81275 25.5632 3.65316C25.224 3.53347 24.865 3.45368 24.5258 3.37388C24.087 3.25419 23.6681 3.15445 23.2292 3.03476C23.1693 3.01481 23.0895 2.99486 23.0297 2.97491C21.6134 2.79537 20.2169 2.61584 18.7806 2.75548C18.0226 2.83527 17.2845 2.99486 16.5464 3.11455C16.1075 3.19435 15.6886 3.27414 15.2697 3.39383C14.9505 3.47363 14.6513 3.61327 14.3321 3.73296C14.1127 3.81275 13.8733 3.89255 13.6539 3.99229C12.8559 4.37131 12.0181 4.69049 11.28 5.14931C9.74393 6.08689 8.32758 7.22396 7.19051 8.64031C6.67185 9.27867 6.19308 9.95692 5.75422 10.6352C5.37519 11.2137 5.05602 11.8121 4.73684 12.4305C4.5174 12.8495 4.37776 13.3083 4.21817 13.7472C4.01869 14.3257 3.8192 14.9042 3.63966 15.4827C3.53992 15.8418 3.46013 16.2008 3.40028 16.5599C3.24069 17.8765 3.04121 19.2131 3.1609 20.5496C3.24069 21.3675 3.40028 22.1655 3.51997 22.9634C3.59977 23.4023 3.67956 23.8411 3.79925 24.28C3.87905 24.5992 4.01869 24.8984 4.11843 25.2176C4.21817 25.4769 4.31792 25.7163 4.41766 25.9756C4.5972 26.4145 4.79668 26.8334 4.99617 27.2524C5.19566 27.6713 5.43504 28.0702 5.67442 28.4692C6.27288 29.4666 7.01098 30.3643 7.78897 31.2221C7.82887 31.282 7.86877 31.3219 7.94856 31.4216C7.82887 31.4615 7.74908 31.5014 7.64933 31.5014C7.09077 31.5014 6.51226 31.5214 5.9537 31.5014C5.81406 31.5014 5.63452 31.4017 5.55473 31.3019C4.95627 30.484 4.35781 29.6661 3.8192 28.7884C3.44018 28.17 3.1609 27.4718 2.86167 26.7935C2.64223 26.3148 2.4627 25.856 2.28316 25.3572C2.16347 24.9982 2.10362 24.6391 2.00388 24.2601C1.90414 23.8012 1.78445 23.3624 1.6847 22.9036C1.66475 22.8238 1.62486 22.744 1.62486 22.6442C1.46527 21.188 1.26578 19.7118 1.42537 18.2356C1.50516 17.4775 1.64481 16.7394 1.7645 16.0013C1.84429 15.5425 1.92409 15.0837 2.04378 14.6448C2.12357 14.2858 2.26321 13.9466 2.3829 13.6075C2.4627 13.3681 2.56244 13.1487 2.62229 12.9293C2.90157 12.1114 3.28059 11.3533 3.67956 10.5953C4.63709 8.8398 5.85396 7.28381 7.33016 5.94725C7.86877 5.46849 8.42733 4.98972 9.00584 4.55085C9.4846 4.19178 10.0232 3.89255 10.5419 3.57337C11.0007 3.29409 11.4795 3.03476 11.9582 2.79537C12.3572 2.59589 12.7761 2.45625 13.195 2.29666C13.4943 2.17697 13.8134 2.03733 14.1127 1.93758C14.392 1.83784 14.6712 1.75805 14.9705 1.67825C15.2099 1.61841 15.4492 1.53861 15.7086 1.49871C16.2871 1.39897 16.8456 1.31918 17.4241 1.23938C17.7832 1.17954 18.1622 1.09974 18.5213 1.07979C19.7182 1 20.8952 0.960103 22.0921 1.19949C22.3514 1.25933 22.6507 1.21943 22.91 1.25933C23.4287 1.35907 23.9473 1.49871 24.466 1.61841C24.845 1.71815 25.224 1.79794 25.5831 1.89769C25.9023 1.99743 26.2015 2.09717 26.5008 2.21686C26.7401 2.31661 26.9795 2.3964 27.199 2.51609C27.7775 2.79537 28.356 3.05471 28.9345 3.35393C29.4332 3.63321 29.9319 3.9125 30.4107 4.23167C31.4081 4.90993 32.3457 5.66797 33.1835 6.52576C33.5626 6.92473 33.9615 7.30376 34.3605 7.72268C34.6996 7.38355 35.0188 7.06437 35.338 6.7452C36.1559 5.90736 37.0336 5.12936 37.9911 4.47106C38.6295 4.03219 39.2878 3.61327 39.9661 3.21429C40.4648 2.93501 41.0034 2.71558 41.522 2.49614C42.0008 2.29666 42.4796 2.09717 42.9583 1.91764C43.3174 1.79794 43.6765 1.71815 44.0555 1.61841C44.3946 1.53861 44.7537 1.45882 45.1128 1.39897C45.6315 1.29923 46.1501 1.21943 46.6688 1.15959C47.3869 1.07979 48.0851 1 48.8033 1C49.5214 1 50.2196 1.09974 50.9378 1.15959C51.0974 1.17954 51.2769 1.17954 51.4365 1.19949C52.0549 1.31918 52.6933 1.43887 53.3117 1.57851C53.6707 1.6583 54.0498 1.75805 54.4088 1.85779C54.7081 1.93758 55.0073 2.03733 55.3065 2.15702C55.6058 2.27671 55.905 2.3964 56.2042 2.51609C56.5633 2.67568 56.9224 2.81532 57.2415 3.01481C57.8001 3.31404 58.3786 3.61327 58.8973 3.99229C59.7152 4.5708 60.553 5.16926 61.2911 5.82756C62.0292 6.50581 62.7075 7.26386 63.3658 8.02191C63.8246 8.56052 64.2236 9.17892 64.5826 9.79733C64.9816 10.4556 65.3407 11.1339 65.6798 11.8321C65.9391 12.3508 66.1386 12.9093 66.3381 13.4479C66.5376 14.0264 66.757 14.6249 66.8967 15.2234C67.0363 15.742 67.0762 16.3006 67.1759 16.8392C67.2358 17.1584 67.3156 17.4775 67.3355 17.7967C67.3754 18.4151 67.3754 19.0335 67.3754 19.6519C67.3754 20.4698 67.3954 21.2877 67.1959 22.1056C67.0563 22.6841 67.0363 23.2626 66.9166 23.8411C66.8368 24.2401 66.6972 24.6191 66.5775 24.9982C66.4777 25.2974 66.3979 25.6166 66.2982 25.9158C66.2184 26.1751 66.1187 26.4544 65.999 26.6938C65.8194 27.0928 65.6399 27.4718 65.4604 27.8508C65.2609 28.2298 65.0614 28.6089 64.842 28.9679C64.5427 29.4666 64.2435 29.9454 63.9044 30.4242C63.6849 30.7633 63.4256 31.0825 63.1663 31.3817C63.1064 31.4615 62.9668 31.5014 62.867 31.5014C62.2885 31.5214 61.71 31.5014 61.1116 31.5014C61.1315 31.5214 61.0517 31.4815 60.932 31.4416Z" fill="#FF0000" stroke="#FF0000"></path>
<path d="M58.1396 36.5484C50.22 44.468 42.3403 52.3677 34.3809 60.3072C33.942 59.8484 33.5031 59.3696 33.0443 58.9108C32.1466 57.9932 31.229 57.0955 30.3113 56.1779C29.3538 55.2004 28.3763 54.2428 27.4188 53.2654C26.4413 52.2879 25.4638 51.3104 24.4664 50.3329C23.4091 49.2756 22.3718 48.2383 21.3345 47.181C20.2772 46.1238 19.2399 45.0864 18.1826 44.0491C17.1453 43.0118 16.1079 41.9745 15.0706 40.9371C13.9535 39.82 12.8164 38.6829 11.6993 37.5658C11.4001 37.2666 11.1208 36.9873 10.8216 36.6881C10.7817 36.6482 10.7617 36.5883 10.7617 36.5684C10.8016 36.5285 10.8615 36.4886 10.9014 36.4886C11.1208 36.4886 11.3203 36.4886 11.5397 36.4886C11.9387 36.4886 12.3377 36.5085 12.7366 36.4886C12.9561 36.4886 13.1157 36.5484 13.2752 36.708C14.3724 37.8052 15.4696 38.9223 16.5867 40.0195C17.8634 41.2962 19.1202 42.553 20.3969 43.8297C22.1723 45.6051 23.9477 47.4005 25.7431 49.1759C27.2792 50.7119 28.8152 52.248 30.3712 53.784C31.628 55.0408 32.9047 56.3175 34.1614 57.5743C34.4208 57.8336 34.5005 57.8336 34.7798 57.5743C35.897 56.4571 37.0141 55.34 38.1312 54.2229C39.2284 53.1257 40.3455 52.0086 41.4427 50.9114C42.4999 49.8542 43.5772 48.7969 44.6344 47.7197C45.7316 46.6225 46.8487 45.5054 47.9459 44.3882C49.2226 43.1115 50.4993 41.8348 51.776 40.5781C52.8134 39.5407 53.8507 38.5034 54.888 37.4661C55.1673 37.1868 55.4466 36.9075 55.7259 36.6282C55.8057 36.5484 55.9453 36.4886 56.045 36.4886C56.6634 36.4686 57.2819 36.4686 57.9003 36.4886C58 36.4886 58.0798 36.5484 58.1396 36.5484Z" fill="#FF0000" stroke="#FF0000"></path>
<path d="M101.086 17.5028V30.9228H120.391V35.6528H101.086V51.2178H95.5863V12.7178H122.756V17.5028H101.086ZM153.256 41.5928H132.796L128.561 51.2178H122.896L140.331 12.7178H145.776L163.266 51.2178H157.491L153.256 41.5928ZM151.331 37.1928L143.026 18.3278L134.721 37.1928H151.331ZM165.402 33.8378H180.197V38.4028H165.402V33.8378ZM212.66 41.5928H192.2L187.965 51.2178H182.3L199.735 12.7178H205.18L222.67 51.2178H216.895L212.66 41.5928ZM210.735 37.1928L202.43 18.3278L194.125 37.1928H210.735ZM243.428 12.7178C248.415 12.7178 252.338 13.9094 255.198 16.2928C258.058 18.6761 259.488 21.9578 259.488 26.1378C259.488 30.3178 258.058 33.5994 255.198 35.9828C252.338 38.3661 248.415 39.5578 243.428 39.5578H233.913V51.2178H228.413V12.7178H243.428ZM243.263 34.7728C246.747 34.7728 249.405 34.0394 251.238 32.5728C253.072 31.0694 253.988 28.9244 253.988 26.1378C253.988 23.3511 253.072 21.2244 251.238 19.7578C249.405 18.2544 246.747 17.5028 243.263 17.5028H233.913V34.7728H243.263ZM282.584 12.7178C287.57 12.7178 291.494 13.9094 294.354 16.2928C297.214 18.6761 298.644 21.9578 298.644 26.1378C298.644 30.3178 297.214 33.5994 294.354 35.9828C291.494 38.3661 287.57 39.5578 282.584 39.5578H273.069V51.2178H267.569V12.7178H282.584ZM282.419 34.7728C285.902 34.7728 288.56 34.0394 290.394 32.5728C292.227 31.0694 293.144 28.9244 293.144 26.1378C293.144 23.3511 292.227 21.2244 290.394 19.7578C288.56 18.2544 285.902 17.5028 282.419 17.5028H273.069V34.7728H282.419Z" fill="white"></path>
</svg><style>@media (prefers-color-scheme: light) { :root { filter: none; } }
</style></svg>